<!--?xml version="1.0" encoding="utf-8"?-->
<!-- Generator: Adobe Illustrator 25.2.3, SVG Export Plug-In . SVG Version: 6.00 Build 0)  -->
<svg version="1.1" id="_x32_" xmlns="http://www.w3.org/2000/svg" xmlns:xlink="http://www.w3.org/1999/xlink" x="0px" y="0px" viewBox="0 0 718 720" style="enable-background:new 0 0 718 720;" xml:space="preserve">
<style type="text/css">
	.st0{fill:#E73828;}
</style>
<g>
	<path class="st0" d="M450.488,140.895l-66.628-27.091v94.946H251.877v25.409h50.444c16.603,30.335,43.373,59.887,73.641,86.888
		c-33.875,31.405-78.176,66.261-133.412,97.64l17.678,17.667c0,0,18.274-7.998,45.831-22.671c0,10.987,0,37.796,0,75.447
		c0,50.061-70.704,100.121-70.704,100.121v17.667c0,0,83.559-20.391,108.132-79.388h136.388v65.173c0,3.986,3.792,6.877,7.634,5.83
		l36.031-9.83c3.031-0.831,5.133-3.581,5.133-6.722V428.407c21.838,12.56,35.974,19.73,35.974,19.73
		c23.568-33.374,51.063-51.04,51.063-51.04c-21.907-3.286-100.012-37.54-168.568-76.728c30.491-25.48,59.116-54.453,80.758-86.209
		h67.828c8.452,0,12.953-9.972,7.327-16.302l-34.835-36.069l-22.321,26.963H436.004c0-32.273,0-54.31,0-54.31L450.488,140.895z
		 M349.829,502.115c0.26-2.796,0.422-5.643,0.422-8.573c0-13.065,0-26.692,0-39.765h129.624v48.338H349.829z M479.875,398.694
		v29.675H350.251c0-17.308,0-31.704,0-39.753c18.825-11.344,39.162-24.521,59.623-39.336
		C433.572,367.781,457.79,384.487,479.875,398.694z M454.176,234.159c-8.359,11.614-25.072,33.292-50.5,59.697
		c-32.724-21.482-58.423-42.693-67.176-59.697h47.359h52.144H454.176z" style="opacity: 1;"></path>
	<path class="st0" d="M170.075,127.322l-11.703,5.851c0,0,26.332,45.325,30.719,78.955c3.217,24.652,52.79,16.971,43.888-16.086
		C222.74,158.027,170.075,127.322,170.075,127.322z" style="opacity: 1;"></path>
	<path class="st0" d="M127.032,276.808c8.78,19.004,24.903,55.317,27.796,77.496c4.39,33.631,58.514,23.395,48.275-14.62
		c-10.24-38.022-67.291-73.112-67.291-73.112L127.032,276.808z" style="opacity: 1;"></path>
	<path class="st0" d="M113.49,476.842l-6.698,12.275c15.63,16.734,41.651,60.039,40.178,95.372
		c-1.413,33.887,69.234,35.34,56.132-24.159c-2.281-10.36-6.58-19.644-12.068-27.944l84.154-268.144l-14.339-6.107L152.277,495.851
		C131.95,482.838,113.49,476.842,113.49,476.842z" style="opacity: 1;"></path>
	<path class="st0" d="M101.254,122.405c0,0-6.103,5.229-7.996,7.742c-5.988,7.857-9.746,15.471-14.187,21.038
		c-5.853,7.377-3.562,15.626-1.372,17.18c2.22,1.594,9.956,1.628,16.248-6.276c4.245-5.27,8.04-9.384,14.903-15.606
		c2.416-2.182,4.812-5.121,7.719-7.762c0,0,6.84-5.905,9.145-8.85c4.616-5.986,9.189-13.708,13.139-17.335
		c5.083-4.878,5.968-12.755,5.096-14.944c-0.994-2.317-8.726-2.446-16.295,3.641c-4.643,3.628-9.986,7.06-16.143,12.14
		C108.06,116.224,104.782,118.771,101.254,122.405z" style="opacity: 1;"></path>
	<path class="st0" d="M717.014,315.317c-1.406-9.276-3.062-17.126-4.566-23.99c-1.538-6.857-3.917-12.525-5.113-17.876
		c-1.963-7.654-3.778-14.14-5.873-20.524c-2.548-6.242-5.096-12.465-7.773-19.889c-3.231-10.465-8.645-22.477-16.755-39.251
		c-1.886-4.29-4.241-7.945-6.36-11.39c-2.115-3.452-4.082-6.654-5.921-9.647c-3.785-5.911-6.644-11.289-9.935-15.68
		c-4.664-6.344-8.631-11.748-12.602-17.153c-1.987-2.709-3.978-5.418-6.052-8.249c-2.332-2.615-4.765-5.344-7.398-8.289
		c-3.721-4.006-7.83-8.418-12.588-13.539c-1.203-1.263-2.443-2.574-3.731-3.932c-1.399-1.243-2.849-2.527-4.353-3.864
		c-2.987-2.689-6.191-5.567-9.645-8.668c-6.864-6.303-12.338-12.167-17.799-16.626c-5.275-4.675-9.824-8.783-14.275-12.032
		c-6.289-4.864-10.554-7.033-14.599-9.526c-4.086-2.432-8.168-4.864-14.994-8.931c-0.946-0.655-9.077-5.155-10.314-5.378
		c0,0-9.205-4.094-13.788-6.134c-6.651-2.946-13.43-6.432-22.48-9.026c-4.447-1.48-9.31-3.101-14.768-4.918
		c-5.431-1.865-11.389-4.128-18.404-5.675c-9.016-2.432-16.718-4.513-23.49-6.344c-6.776-1.851-12.825-2.466-18.225-3.418
		c-7.793-1.155-14.393-2.452-21.027-3.635c-6.688-0.601-13.403-1.196-21.317-1.567c-10.963-0.669-24.149,0.831-42.604,2.283
		c-24.487,2.006-40.576,5.256-53.043,8.215c-19.84,5.121-31.749,6.627-51.708,15.052c-13.004,5.526-24.467,12.708-33.51,18.801
		c-15.667,10.492-24.626,22.017-22.25,25.571c2.447,3.736,15.484-3.216,32.334-9.924c9.773-3.851,21.709-5.979,34.017-9.992
		c21.148-6.904,30.219-11.444,47.244-15.619c11.159-2.446,25.856-3.702,49.17-5.614c8.634-0.574,15.998-1.594,22.534-2.358
		c6.529-0.757,12.2-0.932,17.319-0.736c7.337,0.459,13.582,0.851,19.834,1.236c6.178,1.02,12.355,2.04,19.628,3.236
		c4.998,0.953,10.503,2.155,16.556,4.756c6.076,2.513,12.933,5.215,21.226,7.337c2.095,0.493,4.116,0.98,6.066,1.439
		c1.936,0.507,3.748,1.176,5.542,1.682c3.569,1.074,6.918,1.986,10.067,2.817c6.292,1.675,11.811,3.013,16.589,4.77
		c9.601,4.607,24.22,13.505,24.22,13.505l1.125,0.534c6.35,2.979,11.581,6.046,16.968,8.485c5.282,2.608,10.571,4.918,15.853,8.256
		c2.386,1.716,1.071,4.864,3.717,6.783c1.774,1.284,7.414,1.608,9.429,3.074c3.305,2.385,6.918,4.986,10.919,7.877
		c3.819,3.114,7.779,6.823,12.25,10.83c13.308,11.316,18.036,23.632,24.771,31.03c2.376,2.743,4.782,5.107,6.833,7.6
		c1.99,2.533,3.903,4.966,5.816,7.404c3.846,4.851,7.712,9.708,12.01,15.572c2.839,4.162,5.444,9.107,8.79,14.613
		c1.653,2.77,3.413,5.722,5.309,8.904c0.96,1.588,1.95,3.229,2.981,4.939c0.939,1.75,1.764,3.641,2.71,5.56
		c3.711,7.729,7.276,14.133,10.49,19.774c1.717,2.77,2.974,5.499,4.055,8.12c1.132,2.601,2.163,5.06,3.048,7.431
		c2.562,6.823,5.147,12.492,7.719,18.193c1.974,5.891,3.967,11.809,5.86,18.91c1.132,4.959,2.643,10.397,2.964,16.95
		c0.47,6.519,1.065,13.883,2.372,22.382c1.693,8.479,1.467,15.91,2.186,22.362c0.466,6.479,0.872,12.066,1.24,17.133
		c-0.047,7.296-0.578,13.512-0.794,19.727c-0.47,6.195-0.186,12.478-1.315,19.714c-0.764,5.006-1.936,10.492-3.234,16.829
		c-0.622,3.168-1.288,6.56-2.004,10.201c-0.608,3.668-2.011,7.431-2.984,11.607c-1.879,7.276-3.866,13.518-5.681,19.038
		c-1.751,5.54-4.356,10.046-5.87,14.43c-1.744,4.574,0.135,8.783-1.386,12.708c-1.284,3.141-5.147,6.215-6.766,8.978
		c-3.373,6.6-6.042,13.518-9.496,22.2c-1.531,4.452-4.116,8.87-6.894,13.991c-2.812,5.101-6.059,10.782-9.929,17.167
		c-4.907,7.087-9.851,12.627-13.96,17.626c-4.167,4.966-7.661,9.296-11.176,12.937c-9.739,10.782-15.518,19.403-26.549,29.043
		c-3.69,3.466-7.888,7.154-12.74,11.417c-5.076,4.006-11.189,8.12-18.026,13.322c-3.471,2.547-6.57,5.087-9.618,7.229
		c-3.15,2-6.069,3.858-8.8,5.594c-5.481,3.473-10.209,6.472-14.494,9.188c-6.238,3.804-11.973,6.249-17.394,9.33
		c-5.559,2.79-10.878,6.209-17.755,8.756c-4.775,1.736-10.206,3.229-16.437,5.02c-3.096,0.926-6.407,1.919-9.969,2.986
		c-3.555,1.081-7.516,1.716-11.652,2.858c-8.32,2.209-15.43,4.101-21.686,5.763c-6.39,1.04-11.902,1.939-16.9,2.75
		c-7.225,0.953-13.335,2.182-19.55,2.277c-6.215,0.108-12.419,0.223-19.699,0.594c-10.071,1.061-22.26,0.818-39.465,0.047
		c-2.159-0.128-4.245-0.182-6.238-0.419c-1.98-0.365-3.886-0.716-5.725-1.061c-3.663-0.75-7.06-1.453-10.24-2.108
		c-6.336-1.378-11.781-2.547-16.755-3.391c-7.029-1.763-13.017-3.263-19.013-4.763c-5.975-1.554-12.132-2.574-18.86-5.398
		c-4.714-1.75-10.125-3.121-16.407-4.79c-3.109-0.912-6.566-1.594-10.017-2.986c-3.44-1.419-7.1-3.027-10.98-4.898
		c-7.702-3.898-14.684-6.459-20.253-9.769c-5.633-3.223-10.49-5.999-14.91-8.519c-3.18-1.838-6.123-3.533-8.949-5.161
		c-2.771-1.716-5.245-3.635-7.827-5.391c-5.11-3.614-10.219-7.235-16.221-11.485c-4.312-2.777-8.063-7.107-12.916-11.478
		c-4.63-4.621-10.398-9.35-16.295-15.687c-11.608-12.883-21.006-21.085-26.741-29.618c-4.417-5.911-7.57-11.377-10.696-16.788
		c-2.778-5.661-5.248-11.458-9.084-17.673c-2.48-4.405-6.485-8.56-9.848-14.133c-3.444-5.52-7.306-11.897-11.084-19.714
		c-0.943-1.959-1.815-3.864-2.609-5.715c-0.574-1.946-1.129-3.817-1.663-5.628c-1.01-3.635-1.828-7.046-2.565-10.228
		c-1.44-6.391-2.683-11.843-4.228-16.653c-1.72-7.087-3.001-13.16-4.285-19.214c-1.217-6.067-2.876-12.025-3.586-19.288
		c-0.693-4.986-2.484-10.33-4.444-16.626c-0.919-3.148-2.136-6.506-2.812-10.201c-0.554-3.709-1-7.708-1.217-12.032
		c-0.372-7.81-0.581-14.944-0.642-21.531c0.328-6.58,0.629-12.62,0.912-18.261c0.764-15.43,2.872-27.611,4.522-39.407
		c1.811-12.532,5.177-24.416,8.607-38.826c3.518-14.316,7.732-26.429,11.095-36.245c6.745-20.126,11.071-33.428,7.286-35.576
		c-3.312-1.898-13.507,11.884-23.058,29.604c-5.721,10.397-12.811,22.166-17.549,35.529c-4.724,13.323-7.827,26.449-10.483,41.406
		c-2.143,12.282-1.707,26.091-2.504,42.386C0.7,347.116,0.362,353.703,0,360.77c0.088,7.073,0.22,14.633,0.629,22.733
		c0.203,4.628,0.392,8.924,0.568,12.937c0.338,3.993,0.963,7.675,1.355,11.14c0.882,6.925,1.646,12.904,2.335,18.322
		c0.771,7.857,2.17,14.37,3.041,21.044c0.967,6.654,1.957,13.356,3.832,21.085c1.71,5.222,3.853,10.944,6.272,17.585
		c1.223,3.317,2.531,6.857,3.937,10.667c0.723,1.892,1.396,3.891,2.234,5.898c0.943,1.966,1.919,3.999,2.933,6.107
		c4.062,8.452,7.935,15.478,11.375,21.598c3.457,6.121,7.37,10.85,10.091,15.606c4.15,6.709,7.57,12.505,11.436,17.984
		c4.089,5.33,8.171,10.661,12.977,16.923c6.117,9.066,13.984,19.727,26.501,33.631c6.468,6.749,13.213,11.282,18.776,15.545
		c5.748,4.081,10.388,7.904,14.896,10.992c6.265,4.736,11.101,9.397,15.991,14.093c2.484,2.29,4.812,4.83,7.631,6.931
		c2.825,2.094,5.84,4.189,9.226,6.263c4.684,2.878,10.202,5.506,16.505,8.587c6.313,3.074,13.97,5.567,22.267,9.715
		c4.184,2.047,8.063,3.945,11.683,5.715c3.68,1.635,7.225,2.851,10.469,4.162c6.529,2.54,12.173,4.729,17.343,6.533
		c7.354,2.912,13.981,4.256,20.395,6.364c6.468,1.925,12.943,3.939,20.665,5.688c5.434,0.77,11.578,0.75,18.59,0.871
		c3.508,0.068,7.235,0.162,11.223,0.419c1.994,0.155,4.052,0.318,6.188,0.486c2.153,0.007,4.373,0.068,6.674,0.182
		c18.424,0.946,31.537,4.182,42.489,3.256c7.871-0.29,14.575-0.932,21.253-1.581c6.664-0.804,13.22-2.459,21.027-3.432
		c5.417-0.635,11.382-1.338,18.299-2.148c6.81-1.392,14.569-3.054,23.571-5.378c9.124-2.02,16.512-5.094,23.041-7.648
		c6.536-2.54,12.162-4.743,17.313-6.58c7.337-2.865,13.203-6.209,19.246-9.107c3.001-1.5,6.005-2.993,9.138-4.553
		c3.163-1.507,6.434-3.114,9.76-5.242c4.687-2.783,10.28-5.101,16.742-7.979c3.227-1.432,6.671-3.006,10.307-4.83
		c3.44-2.128,7.043-4.547,10.801-7.35c7.462-5.702,13.727-10.715,18.648-15.768c4.819-5.182,8.868-9.708,12.875-13.437
		c11.933-10.384,18.343-19.578,28.975-31.198c3.812-3.925,6.921-9.168,10.909-14.897c3.836-5.844,8.631-12.147,13.737-19.842
		c6.022-10.08,10.912-18.268,15.123-25.314c1.5-2.101,3.974-7.999,5.062-10.053c2.393-5.02,5.765-4.574,7.776-8.837
		c2.555-5.749,5.123-10.911,6.779-16.754c1.727-5.81,3.542-11.863,6.052-18.849c1.514-4.743,4.539-9.526,6.434-15.484
		c2.156-5.878,4.508-12.525,6.502-20.301c2.656-9.012,3.173-17.058,3.9-24.051c0.696-6.999,1.25-13.018,2.115-18.43
		c1.088-7.823,0.514-14.633,0.507-21.355c-0.267-6.742-0.034-13.444-0.115-21.294c-0.22-5.438,0.416-11.444,0.983-18.477
		C717.724,332.652,718.778,324.538,717.014,315.317z" style="opacity: 1;"></path>
</g>
</svg>
